<svg width="41" height="41" viewBox="0 0 41 41" fill="none" xmlns="http://www.w3.org/2000/svg">
<path d="M34.7939 19.5311L19.6672 6.40225C19.5511 6.30215 19.4029 6.24609 19.2468 6.24609H15.7033C15.407 6.24609 15.2709 6.61445 15.4951 6.80664L29.5168 18.9785H6.08594C5.90977 18.9785 5.76562 19.1227 5.76562 19.2988V21.7012C5.76562 21.8773 5.90977 22.0215 6.08594 22.0215H29.5128L15.4911 34.1934C15.2669 34.3896 15.403 34.7539 15.6993 34.7539H19.3629C19.439 34.7539 19.515 34.7259 19.5711 34.6738L34.7939 21.4689C34.9326 21.3484 35.0437 21.1995 35.1199 21.0324C35.196 20.8652 35.2354 20.6837 35.2354 20.5C35.2354 20.3163 35.196 20.1348 35.1199 19.9676C35.0437 19.8005 34.9326 19.6516 34.7939 19.5311Z" fill="white"/>
</svg>
