<svg width="28" height="37" viewBox="0 0 28 37" fill="none" xmlns="http://www.w3.org/2000/svg">
<path d="M21.5482 36.3869C20.1283 36.3886 18.7511 35.9013 17.6482 35.0069L2.34822 22.3769C1.74824 21.8993 1.2637 21.2925 0.930667 20.6017C0.597634 19.9108 0.424683 19.1538 0.424683 18.3869C0.424683 17.62 0.597634 16.863 0.930667 16.1722C1.2637 15.4814 1.74824 14.8746 2.34822 14.3969L17.6482 1.76693C18.5693 1.02891 19.6792 0.564484 20.8514 0.426578C22.0236 0.288671 23.211 0.482828 24.2782 0.986926C25.2057 1.39577 25.996 2.06295 26.5546 2.90878C27.1131 3.75462 27.4164 4.74337 27.4282 5.75693V31.0169C27.4164 32.0305 27.1131 33.0192 26.5546 33.8651C25.996 34.7109 25.2057 35.3781 24.2782 35.7869C23.4206 36.1769 22.4903 36.3814 21.5482 36.3869Z" fill="#484241"/>
</svg>
