<svg width="50" height="51" viewBox="0 0 50 51" fill="none" xmlns="http://www.w3.org/2000/svg">
<g clip-path="url(#clip0_295_81)">
<path opacity="0.7" fill-rule="evenodd" clip-rule="evenodd" d="M53.1222 25.6041C53.1222 25.1897 52.9341 24.7923 52.5992 24.4993C52.2643 24.2063 51.8102 24.0416 51.3366 24.0416H9.22142L20.46 14.2104C20.626 14.0651 20.7577 13.8927 20.8476 13.7028C20.9374 13.513 20.9836 13.3096 20.9836 13.1041C20.9836 12.8987 20.9374 12.6953 20.8476 12.5054C20.7577 12.3156 20.626 12.1432 20.46 11.9979C20.294 11.8526 20.0969 11.7374 19.88 11.6588C19.6631 11.5801 19.4306 11.5397 19.1958 11.5397C18.961 11.5397 18.7285 11.5801 18.5116 11.6588C18.2947 11.7374 18.0976 11.8526 17.9316 11.9979L3.64678 24.4979C3.48049 24.643 3.34856 24.8155 3.25855 25.0053C3.16853 25.1951 3.12219 25.3986 3.12219 25.6041C3.12219 25.8097 3.16853 26.0132 3.25855 26.203C3.34856 26.3928 3.48049 26.5653 3.64678 26.7104L17.9316 39.2104C18.0976 39.3557 18.2947 39.4709 18.5116 39.5495C18.7285 39.6282 18.961 39.6686 19.1958 39.6686C19.4306 39.6686 19.6631 39.6282 19.88 39.5495C20.0969 39.4709 20.294 39.3557 20.46 39.2104C20.626 39.0651 20.7577 38.8927 20.8476 38.7028C20.9374 38.513 20.9836 38.3096 20.9836 38.1041C20.9836 37.8987 20.9374 37.6953 20.8476 37.5054C20.7577 37.3156 20.626 37.1432 20.46 36.9979L9.22142 27.1666H51.3366C51.8102 27.1666 52.2643 27.002 52.5992 26.709C52.9341 26.416 53.1222 26.0185 53.1222 25.6041Z" fill="black" stroke="black" stroke-width="4"/>
</g>
<defs>
<clipPath id="clip0_295_81">
<rect width="50" height="50" fill="white" transform="translate(0 0.604126)"/>
</clipPath>
</defs>
</svg>
