<svg width="41" height="41" viewBox="0 0 41 41" fill="none" xmlns="http://www.w3.org/2000/svg">
<g clip-path="url(#clip0_333_206)">
<path fill-rule="evenodd" clip-rule="evenodd" d="M20.3079 38.4131C24.9491 38.4131 29.4003 36.5693 32.6822 33.2875C35.9641 30.0056 37.8079 25.5544 37.8079 20.9131C37.8079 16.2718 35.9641 11.8206 32.6822 8.53872C29.4003 5.25683 24.9491 3.41308 20.3079 3.41309C15.6666 3.41309 11.2154 5.25683 7.93349 8.53872C4.6516 11.8206 2.80786 16.2718 2.80786 20.9131C2.80786 25.5544 4.65161 30.0056 7.93349 33.2875C11.2154 36.5693 15.6666 38.4131 20.3079 38.4131ZM20.3079 0.913085C25.6122 0.913085 30.6993 3.02022 34.45 6.77095C38.2007 10.5217 40.3079 15.6088 40.3079 20.9131C40.3079 26.2174 38.2007 31.3045 34.45 35.0552C30.6993 38.8059 25.6122 40.9131 20.3079 40.9131C15.0035 40.9131 9.91645 38.8059 6.16573 35.0552C2.415 31.3045 0.307861 26.2174 0.30786 20.9131C0.30786 15.6088 2.415 10.5217 6.16572 6.77095C9.91645 3.02022 15.0035 0.913085 20.3079 0.913085ZM29.0579 19.6631C29.3894 19.6631 29.7073 19.7948 29.9417 20.0292C30.1762 20.2636 30.3079 20.5816 30.3079 20.9131C30.3079 21.2446 30.1762 21.5625 29.9417 21.797C29.7073 22.0314 29.3894 22.1631 29.0579 22.1631L14.5754 22.1631L19.9429 27.5281C20.1776 27.7628 20.3094 28.0811 20.3094 28.4131C20.3094 28.745 20.1776 29.0634 19.9429 29.2981C19.7081 29.5328 19.3898 29.6647 19.0579 29.6647C18.7259 29.6647 18.4076 29.5328 18.1729 29.2981L10.6729 21.7981C10.5565 21.682 10.4641 21.544 10.4011 21.3922C10.3381 21.2403 10.3056 21.0775 10.3056 20.9131C10.3056 20.7487 10.3381 20.5859 10.4011 20.434C10.4641 20.2821 10.5565 20.1442 10.6729 20.0281L18.1729 12.5281C18.4076 12.2934 18.7259 12.1615 19.0579 12.1615C19.3898 12.1615 19.7081 12.2934 19.9429 12.5281C20.1776 12.7628 20.3094 13.0811 20.3094 13.4131C20.3094 13.745 20.1776 14.0634 19.9429 14.2981L14.5754 19.6631L29.0579 19.6631Z" fill="#484241"/>
</g>
<defs>
<clipPath id="clip0_333_206">
<rect width="40" height="40" fill="white" transform="translate(0.307861 40.9131) rotate(-90)"/>
</clipPath>
</defs>
</svg>
