<svg width="18" height="18" viewBox="0 0 18 18" fill="none" xmlns="http://www.w3.org/2000/svg">
<path d="M3.65625 1.125C2.88 1.125 2.25 1.75275 2.25 2.529V12.0926C2.25 12.8689 2.88 13.4989 3.65625 13.4989H5.625V11.7394C5.62502 11.3525 5.70485 10.9698 5.85952 10.6151C6.01418 10.2605 6.24035 9.94161 6.52387 9.67837L7.25738 8.99662C7.1496 8.98598 7.04719 8.94444 6.96244 8.87701C6.8777 8.80958 6.81422 8.71912 6.77963 8.61649C6.74504 8.51386 6.74082 8.40343 6.76746 8.29846C6.79411 8.19349 6.85049 8.09844 6.92983 8.02473C7.00918 7.95102 7.10812 7.90179 7.21476 7.88294C7.32141 7.86409 7.43123 7.87642 7.53104 7.91846C7.63084 7.96051 7.71639 8.03047 7.77741 8.11994C7.83842 8.20942 7.87231 8.31461 7.875 8.42287L9.72 6.71062C10.0724 6.38343 10.5203 6.17772 10.9981 6.12366C11.4759 6.06961 11.9584 6.17004 12.375 6.41025C12.3602 6.04732 12.2055 5.70421 11.9434 5.45277C11.6812 5.20133 11.332 5.06107 10.9688 5.06137H10.4096C10.335 5.06137 10.2635 5.03174 10.2108 4.979C10.158 4.92625 10.1284 4.85472 10.1284 4.78012L10.1306 2.53237C10.1306 1.755 9.50063 1.12387 8.72438 1.12387H3.65625V1.125ZM5.0625 4.5C4.91332 4.5 4.77024 4.44074 4.66475 4.33525C4.55926 4.22976 4.5 4.08668 4.5 3.9375C4.5 3.78832 4.55926 3.64524 4.66475 3.53975C4.77024 3.43426 4.91332 3.375 5.0625 3.375C5.21168 3.375 5.35476 3.43426 5.46025 3.53975C5.56574 3.64524 5.625 3.78832 5.625 3.9375C5.625 4.08668 5.56574 4.22976 5.46025 4.33525C5.35476 4.44074 5.21168 4.5 5.0625 4.5ZM5.625 6.1875C5.625 6.33668 5.56574 6.47976 5.46025 6.58525C5.35476 6.69074 5.21168 6.75 5.0625 6.75C4.91332 6.75 4.77024 6.69074 4.66475 6.58525C4.55926 6.47976 4.5 6.33668 4.5 6.1875C4.5 6.03832 4.55926 5.89524 4.66475 5.78975C4.77024 5.68426 4.91332 5.625 5.0625 5.625C5.21168 5.625 5.35476 5.68426 5.46025 5.78975C5.56574 5.89524 5.625 6.03832 5.625 6.1875ZM5.0625 9C4.91332 9 4.77024 8.94074 4.66475 8.83525C4.55926 8.72976 4.5 8.58668 4.5 8.4375C4.5 8.28832 4.55926 8.14524 4.66475 8.03975C4.77024 7.93426 4.91332 7.875 5.0625 7.875C5.21168 7.875 5.35476 7.93426 5.46025 8.03975C5.56574 8.14524 5.625 8.28832 5.625 8.4375C5.625 8.58668 5.56574 8.72976 5.46025 8.83525C5.35476 8.94074 5.21168 9 5.0625 9ZM7.875 3.9375C7.875 4.08668 7.81574 4.22976 7.71025 4.33525C7.60476 4.44074 7.46168 4.5 7.3125 4.5C7.16332 4.5 7.02024 4.44074 6.91475 4.33525C6.80926 4.22976 6.75 4.08668 6.75 3.9375C6.75 3.78832 6.80926 3.64524 6.91475 3.53975C7.02024 3.43426 7.16332 3.375 7.3125 3.375C7.46168 3.375 7.60476 3.43426 7.71025 3.53975C7.81574 3.64524 7.875 3.78832 7.875 3.9375ZM7.3125 6.75C7.16332 6.75 7.02024 6.69074 6.91475 6.58525C6.80926 6.47976 6.75 6.33668 6.75 6.1875C6.75 6.03832 6.80926 5.89524 6.91475 5.78975C7.02024 5.68426 7.16332 5.625 7.3125 5.625C7.46168 5.625 7.60476 5.68426 7.71025 5.78975C7.81574 5.89524 7.875 6.03832 7.875 6.1875C7.875 6.33668 7.81574 6.47976 7.71025 6.58525C7.60476 6.69074 7.46168 6.75 7.3125 6.75ZM12.015 7.53637C11.807 7.34344 11.5337 7.23624 11.25 7.23624C10.9663 7.23624 10.693 7.34344 10.485 7.53637L7.29 10.503C7.11965 10.661 6.98376 10.8524 6.89084 11.0654C6.79792 11.2783 6.74997 11.5082 6.75 11.7405V15.7489C6.75 16.0472 6.86853 16.3334 7.0795 16.5444C7.29048 16.7553 7.57663 16.8739 7.875 16.8739H9.5625C9.86087 16.8739 10.147 16.7553 10.358 16.5444C10.569 16.3334 10.6875 16.0472 10.6875 15.7489V14.6239H11.8125V15.7489C11.8125 16.0472 11.931 16.3334 12.142 16.5444C12.353 16.7553 12.6391 16.8739 12.9375 16.8739H14.625C14.9234 16.8739 15.2095 16.7553 15.4205 16.5444C15.6315 16.3334 15.75 16.0472 15.75 15.7489V11.7394C15.7499 11.5072 15.7019 11.2776 15.6089 11.0649C15.516 10.8521 15.3802 10.6609 15.21 10.503L12.015 7.5375V7.53637ZM8.055 11.3276L11.25 8.361L14.445 11.3276C14.5017 11.3802 14.5469 11.4439 14.5779 11.5147C14.6089 11.5856 14.6249 11.6621 14.625 11.7394V15.75H12.9375V14.625C12.9375 14.3266 12.819 14.0405 12.608 13.8295C12.397 13.6185 12.1109 13.5 11.8125 13.5H10.6875C10.3891 13.5 10.103 13.6185 9.892 13.8295C9.68103 14.0405 9.5625 14.3266 9.5625 14.625V15.75H7.875V11.7405C7.87509 11.6632 7.89113 11.5867 7.9221 11.5159C7.95307 11.445 7.99831 11.3813 8.055 11.3287V11.3276Z" fill="black"/>
</svg>
