<svg width="17" height="17" viewBox="0 0 17 17" fill="none" xmlns="http://www.w3.org/2000/svg">
<g clip-path="url(#clip0_432_194)">
<path d="M8.68359 1.34393C9.34663 1.34393 9.98252 1.60733 10.4514 2.07617C10.9202 2.54501 11.1836 3.18089 11.1836 3.84393V4.34393H6.18359V3.84393C6.18359 3.18089 6.44699 2.54501 6.91583 2.07617C7.38467 1.60733 8.02055 1.34393 8.68359 1.34393V1.34393ZM12.1836 4.34393V3.84393C12.1836 2.91568 11.8148 2.02544 11.1585 1.36906C10.5021 0.712682 9.61185 0.343933 8.68359 0.343933C7.75534 0.343933 6.8651 0.712682 6.20872 1.36906C5.55234 2.02544 5.18359 2.91568 5.18359 3.84393V4.34393H1.68359V14.3439C1.68359 14.8744 1.89431 15.3831 2.26938 15.7581C2.64445 16.1332 3.15316 16.3439 3.68359 16.3439H13.6836C14.214 16.3439 14.7227 16.1332 15.0978 15.7581C15.4729 15.3831 15.6836 14.8744 15.6836 14.3439V4.34393H12.1836ZM2.68359 5.34393H14.6836V14.3439C14.6836 14.6091 14.5782 14.8635 14.3907 15.051C14.2032 15.2386 13.9488 15.3439 13.6836 15.3439H3.68359C3.41838 15.3439 3.16402 15.2386 2.97649 15.051C2.78895 14.8635 2.68359 14.6091 2.68359 14.3439V5.34393Z" fill="#451106"/>
</g>
<defs>
<clipPath id="clip0_432_194">
<rect width="16" height="16" fill="white" transform="translate(0.683594 0.343933)"/>
</clipPath>
</defs>
</svg>
