<svg width="18" height="18" viewBox="0 0 18 18" fill="none" xmlns="http://www.w3.org/2000/svg">
<path d="M9 4.5C8.44374 4.5 7.89997 4.66495 7.43746 4.97399C6.97495 5.28303 6.61446 5.72229 6.40159 6.2362C6.18872 6.75012 6.13302 7.31562 6.24154 7.86119C6.35006 8.40676 6.61793 8.9079 7.01126 9.30124C7.4046 9.69457 7.90574 9.96244 8.45131 10.071C8.99688 10.1795 9.56238 10.1238 10.0763 9.91091C10.5902 9.69804 11.0295 9.33755 11.3385 8.87504C11.6476 8.41253 11.8125 7.86876 11.8125 7.3125C11.8125 6.56658 11.5162 5.85121 10.9887 5.32376C10.4613 4.79632 9.74592 4.5 9 4.5Z" fill="black"/>
<path d="M9 1.125C7.44248 1.125 5.91992 1.58686 4.62489 2.45218C3.32985 3.31749 2.32049 4.5474 1.72445 5.98637C1.12841 7.42534 0.972461 9.00874 1.27632 10.5363C1.58018 12.0639 2.3302 13.4671 3.43154 14.5685C4.53288 15.6698 5.93607 16.4198 7.46367 16.7237C8.99127 17.0275 10.5747 16.8716 12.0136 16.2756C13.4526 15.6795 14.6825 14.6702 15.5478 13.3751C16.4131 12.0801 16.875 10.5575 16.875 9C16.8726 6.91215 16.0422 4.9105 14.5658 3.43417C13.0895 1.95783 11.0879 1.12738 9 1.125ZM13.4955 14.0209C13.4843 13.2831 13.1837 12.5792 12.6585 12.0609C12.1332 11.5426 11.4254 11.2514 10.6875 11.25H7.3125C6.57461 11.2514 5.86679 11.5426 5.34155 12.0609C4.81632 12.5792 4.51571 13.2831 4.5045 14.0209C3.48445 13.11 2.7651 11.9109 2.44172 10.5821C2.11834 9.25338 2.20618 7.85776 2.69361 6.58005C3.18104 5.30234 4.04506 4.20281 5.17128 3.42707C6.29749 2.65132 7.63276 2.23595 9.00028 2.23595C10.3678 2.23595 11.7031 2.65132 12.8293 3.42707C13.9555 4.20281 14.8195 5.30234 15.307 6.58005C15.7944 7.85776 15.8822 9.25338 15.5588 10.5821C15.2355 11.9109 14.5161 13.11 13.4961 14.0209H13.4955Z" fill="black"/>
</svg>
