<svg width="32" height="33" viewBox="0 0 32 33" fill="none" xmlns="http://www.w3.org/2000/svg">
<path d="M7.61903 10.679H26.6667L24.2499 19.1361C24.0678 19.7727 23.6833 20.3327 23.1546 20.7314C22.6259 21.1301 21.9818 21.3457 21.3196 21.3456H11.1101C10.3595 21.3461 9.63525 21.0695 9.07598 20.569C8.5167 20.0685 8.16178 19.3792 8.07922 18.6333L6.85713 7.63135H3.80951" stroke="black" stroke-linecap="round" stroke-linejoin="round"/>
<path d="M10.6666 26.679C11.5082 26.679 12.1904 25.9967 12.1904 25.1552C12.1904 24.3136 11.5082 23.6313 10.6666 23.6313C9.82506 23.6313 9.14282 24.3136 9.14282 25.1552C9.14282 25.9967 9.82506 26.679 10.6666 26.679Z" fill="black"/>
<path d="M22.8571 26.679C23.6987 26.679 24.3809 25.9967 24.3809 25.1552C24.3809 24.3136 23.6987 23.6313 22.8571 23.6313C22.0155 23.6313 21.3333 24.3136 21.3333 25.1552C21.3333 25.9967 22.0155 26.679 22.8571 26.679Z" fill="black"/>
</svg>
