<svg width="16" height="16" viewBox="0 0 16 16" fill="none" xmlns="http://www.w3.org/2000/svg">
<path d="M8 11.25C9.79493 11.25 11.25 9.79493 11.25 8C11.25 6.20507 9.79493 4.75 8 4.75C6.20507 4.75 4.75 6.20507 4.75 8C4.75 9.79493 6.20507 11.25 8 11.25Z" stroke="#8B6C66" stroke-width="1.5" stroke-linecap="round" stroke-linejoin="round"/>
<path d="M8.75 4.75C8.75 3.75 9.25 2.25 10.25 1.75C11 1.75 11.75 2.75 12.25 3.75C13.25 4.25 14.25 5.25 14.25 5.75C13.75 6.75 12.25 7.25 11.25 7.25M7.25 11.25C7.25 12.25 6.75 13.75 5.75 14.25C5 14.25 4.25 13.25 3.75 12.25C2.75 11.75 1.75 10.75 1.75 10.25C2.25 9.25 3.75 8.75 4.75 8.75L7.25 11.25Z" stroke="#8B6C66" stroke-width="1.5" stroke-linecap="round" stroke-linejoin="round"/>
</svg>
