<svg width="18" height="18" viewBox="0 0 18 18" fill="none" xmlns="http://www.w3.org/2000/svg">
<path d="M8.16504 2.525C9.24811 2.52401 10.3071 2.84427 11.2081 3.44527C12.1092 4.04627 12.8117 4.901 13.2268 5.90134C13.642 6.90168 13.7511 8.00268 13.5405 9.06505C13.3298 10.1274 12.8087 11.1034 12.0432 11.8696C11.2777 12.6358 10.3022 13.1578 9.24 13.3694C8.17782 13.5811 7.07672 13.473 6.07601 13.0587C5.07529 12.6445 4.21992 11.9427 3.61809 11.0423C3.01627 10.1418 2.69504 9.08307 2.69504 8C2.70161 6.55083 3.27986 5.16281 4.30412 4.13761C5.32838 3.11241 6.71588 2.53289 8.16504 2.525ZM8.16504 1.5C6.87946 1.5 5.62276 1.88122 4.55384 2.59545C3.48492 3.30968 2.65179 4.32484 2.15983 5.51256C1.66786 6.70028 1.53913 8.00721 1.78994 9.26809C2.04074 10.529 2.65981 11.6872 3.56885 12.5962C4.47789 13.5052 5.63608 14.1243 6.89696 14.3751C8.15783 14.6259 9.46476 14.4972 10.6525 14.0052C11.8402 13.5132 12.8554 12.6801 13.5696 11.6112C14.2838 10.5423 14.665 9.28558 14.665 8C14.665 6.27609 13.9802 4.62279 12.7612 3.40381C11.5422 2.18482 9.88895 1.5 8.16504 1.5Z" fill="black"/>
<path d="M17.5 16.645L13.815 12.935L13.105 13.64L16.79 17.35C16.8363 17.3966 16.8913 17.4337 16.9519 17.459C17.0125 17.4844 17.0775 17.4975 17.1432 17.4978C17.2089 17.498 17.274 17.4853 17.3348 17.4604C17.3956 17.4354 17.4509 17.3988 17.4975 17.3525C17.5441 17.3062 17.5811 17.2512 17.6065 17.1906C17.6319 17.13 17.645 17.065 17.6453 16.9993C17.6455 16.9336 17.6328 16.8685 17.6079 16.8077C17.5829 16.7469 17.5463 16.6916 17.5 16.645Z" fill="black"/>
</svg>
