<svg width="64" height="64" viewBox="0 0 64 64" fill="none" xmlns="http://www.w3.org/2000/svg">
<path d="M32 30.774C32 30.774 30.288 20.052 30.288 19.305C30.288 18.558 31.056 17.951 32 17.951C32.944 17.951 33.712 18.557 33.712 19.305C33.712 20.053 32 30.774 32 30.774ZM32 33.277C32 33.277 33.712 43.998 33.712 44.746C33.712 45.494 32.944 46.1 32 46.1C31.056 46.1 30.288 45.495 30.288 44.746C30.288 43.997 32 33.277 32 33.277ZM30.748 32.025C30.748 32.025 20.027 33.737 19.28 33.737C18.532 33.737 17.926 32.97 17.926 32.025C17.926 31.081 18.532 30.314 19.28 30.314C20.027 30.314 30.748 32.025 30.748 32.025ZM33.252 32.025C33.252 32.025 43.973 30.314 44.721 30.314C45.468 30.314 46.075 31.081 46.075 32.025C46.075 32.97 45.469 33.737 44.721 33.737C43.973 33.737 33.252 32.025 33.252 32.025ZM31.114 31.141C31.114 31.141 22.323 24.771 21.796 24.242C21.267 23.714 21.38 22.743 22.049 22.075C22.717 21.407 23.687 21.294 24.216 21.822C24.743 22.35 31.114 31.141 31.114 31.141V31.141ZM32.886 32.911C32.886 32.911 41.677 39.281 42.204 39.81C42.733 40.339 42.62 41.309 41.951 41.978C41.283 42.646 40.313 42.759 39.784 42.23C39.257 41.701 32.886 32.911 32.886 32.911ZM31.114 32.911C31.114 32.911 24.743 41.701 24.216 42.23C23.687 42.759 22.717 42.646 22.049 41.978C21.38 41.309 21.267 40.339 21.796 39.81C22.323 39.281 31.114 32.911 31.114 32.911ZM32.886 31.141C32.886 31.141 39.257 22.35 39.784 21.822C40.313 21.294 41.283 21.407 41.951 22.075C42.62 22.743 42.733 23.714 42.204 24.242C41.677 24.771 32.886 31.141 32.886 31.141V31.141ZM31.156 29.938C31.156 29.938 22.341 12.686 21.837 11.438C21.333 10.19 21.634 8.892 22.51 8.538C23.387 8.184 24.505 8.909 25.009 10.157C25.513 11.403 31.156 29.938 31.156 29.938V29.938ZM32.844 34.115C32.844 34.115 41.659 51.366 42.163 52.615C42.667 53.862 42.366 55.16 41.49 55.513C40.613 55.868 39.495 55.144 38.991 53.896C38.487 52.648 32.844 34.115 32.844 34.115V34.115ZM29.911 32.87C29.911 32.87 12.659 41.685 11.411 42.189C10.163 42.694 8.865 42.392 8.511 41.515C8.157 40.64 8.882 39.52 10.13 39.016C11.377 38.512 29.911 32.87 29.911 32.87ZM34.089 31.182C34.089 31.182 51.341 22.367 52.589 21.863C53.837 21.358 55.135 21.661 55.489 22.537C55.843 23.413 55.118 24.532 53.87 25.036C52.623 25.539 34.089 31.182 34.089 31.182ZM29.926 31.146C29.926 31.146 11.493 25.181 10.255 24.655C9.017 24.13 8.312 22.999 8.681 22.128C9.05 21.259 10.355 20.98 11.593 21.506C12.831 22.03 29.926 31.146 29.926 31.146ZM34.074 32.906C34.074 32.906 52.507 38.871 53.745 39.396C54.983 39.922 55.688 41.054 55.319 41.923C54.95 42.794 53.645 43.073 52.407 42.546C51.169 42.021 34.074 32.906 34.074 32.906ZM31.12 34.1C31.12 34.1 25.155 52.533 24.629 53.772C24.103 55.01 22.972 55.715 22.102 55.346C21.232 54.976 20.954 53.672 21.478 52.434C22.005 51.195 31.12 34.1 31.12 34.1V34.1ZM32.88 29.952C32.88 29.952 38.845 11.519 39.371 10.281C39.897 9.042 41.028 8.338 41.898 8.707C42.768 9.076 43.047 10.379 42.522 11.618C41.995 12.857 32.88 29.952 32.88 29.952V29.952ZM32.006 47.068C32.006 47.068 33.72 59.552 33.72 60.422C33.72 61.292 32.954 62 32.009 62C31.064 62 30.298 61.295 30.298 60.424C30.298 59.553 32.006 47.068 32.006 47.068V47.068ZM31.995 15.955C31.995 15.955 30.28 4.287 30.28 3.474C30.28 2.661 31.046 2 31.991 2C32.936 2 33.702 2.659 33.702 3.473C33.702 4.287 31.995 15.955 31.995 15.955V15.955ZM42.659 42.65C42.659 42.65 52.699 50.266 53.313 50.881C53.93 51.497 53.887 52.537 53.219 53.206C52.551 53.874 51.51 53.917 50.895 53.302C50.279 52.688 42.659 42.65 42.659 42.65V42.65ZM20.651 20.658C20.651 20.658 11.188 13.62 10.612 13.045C10.037 12.469 10.112 11.461 10.78 10.793C11.448 10.124 12.457 10.049 13.032 10.625C13.608 11.199 20.651 20.658 20.651 20.658ZM42.659 21.349C42.659 21.349 50.279 11.313 50.895 10.698C51.51 10.082 52.551 10.125 53.219 10.794C53.887 11.462 53.93 12.503 53.313 13.118C52.699 13.732 42.659 21.349 42.659 21.349V21.349ZM20.651 43.341C20.651 43.341 13.608 52.801 13.032 53.375C12.457 53.951 11.448 53.875 10.78 53.207C10.112 52.538 10.037 51.53 10.612 50.955C11.188 50.38 20.651 43.341 20.651 43.341V43.341ZM47.068 31.994C47.068 31.994 59.552 30.28 60.423 30.28C61.294 30.279 62 31.046 62 31.99C62.001 32.935 61.296 33.702 60.425 33.702C59.554 33.703 47.068 31.994 47.068 31.994V31.994ZM15.956 32.006C15.956 32.006 4.286 33.719 3.474 33.72C2.659 33.72 2 32.953 2 32.009C2 31.064 2.659 30.297 3.474 30.297C4.286 30.297 15.956 32.006 15.956 32.006" fill="#8B6C66"/>
<path d="M20.7279 6.936C21.7441 6.936 22.5679 6.1122 22.5679 5.096C22.5679 4.0798 21.7441 3.256 20.7279 3.256C19.7117 3.256 18.8879 4.0798 18.8879 5.096C18.8879 6.1122 19.7117 6.936 20.7279 6.936Z" fill="#8B6C66"/>
<path d="M43.5441 6.936C44.5603 6.936 45.3841 6.1122 45.3841 5.096C45.3841 4.0798 44.5603 3.256 43.5441 3.256C42.5279 3.256 41.7041 4.0798 41.7041 5.096C41.7041 6.1122 42.5279 6.936 43.5441 6.936Z" fill="#8B6C66"/>
<path d="M20.2089 60.866C21.2257 60.866 22.0499 60.0418 22.0499 59.025C22.0499 58.0082 21.2257 57.184 20.2089 57.184C19.1922 57.184 18.3679 58.0082 18.3679 59.025C18.3679 60.0418 19.1922 60.866 20.2089 60.866Z" fill="#8B6C66"/>
<path d="M43.0251 60.866C44.0418 60.866 44.8661 60.0418 44.8661 59.025C44.8661 58.0082 44.0418 57.184 43.0251 57.184C42.0083 57.184 41.1841 58.0082 41.1841 59.025C41.1841 60.0418 42.0083 60.866 43.0251 60.866Z" fill="#8B6C66"/>
<path d="M4.91202 45.049C5.92823 45.049 6.75202 44.2252 6.75202 43.209C6.75202 42.1928 5.92823 41.369 4.91202 41.369C3.89582 41.369 3.07202 42.1928 3.07202 43.209C3.07202 44.2252 3.89582 45.049 4.91202 45.049Z" fill="#8B6C66"/>
<path d="M4.91202 22.233C5.92823 22.233 6.75202 21.4092 6.75202 20.393C6.75202 19.3768 5.92823 18.553 4.91202 18.553C3.89582 18.553 3.07202 19.3768 3.07202 20.393C3.07202 21.4092 3.89582 22.233 4.91202 22.233Z" fill="#8B6C66"/>
<path d="M58.841 45.569C59.8578 45.569 60.682 44.7448 60.682 43.728C60.682 42.7112 59.8578 41.887 58.841 41.887C57.8242 41.887 57 42.7112 57 43.728C57 44.7448 57.8242 45.569 58.841 45.569Z" fill="#8B6C66"/>
<path d="M58.841 22.752C59.8572 22.752 60.681 21.9282 60.681 20.912C60.681 19.8958 59.8572 19.072 58.841 19.072C57.8248 19.072 57.001 19.8958 57.001 20.912C57.001 21.9282 57.8248 22.752 58.841 22.752Z" fill="#8B6C66"/>
</svg>
