<svg width="25" height="24" viewBox="0 0 25 24" fill="none" xmlns="http://www.w3.org/2000/svg">
<path d="M4.68002 4.575C4.96132 4.29379 5.34278 4.13582 5.74052 4.13582C6.13827 4.13582 6.51973 4.29379 6.80102 4.575L12.105 9.879L17.409 4.575C17.6919 4.30176 18.0708 4.15057 18.4641 4.15399C18.8574 4.1574 19.2336 4.31516 19.5118 4.59327C19.7899 4.87138 19.9476 5.2476 19.951 5.6409C19.9545 6.03419 19.8033 6.4131 19.53 6.696L14.226 12L19.53 17.304C19.8033 17.5869 19.9545 17.9658 19.951 18.3591C19.9476 18.7524 19.7899 19.1286 19.5118 19.4067C19.2336 19.6848 18.8574 19.8426 18.4641 19.846C18.0708 19.8494 17.6919 19.6982 17.409 19.425L12.105 14.121L6.80102 19.425C6.51812 19.6982 6.13922 19.8494 5.74592 19.846C5.35263 19.8426 4.97641 19.6848 4.6983 19.4067C4.42018 19.1286 4.26243 18.7524 4.25901 18.3591C4.2556 17.9658 4.40679 17.5869 4.68002 17.304L9.98402 12L4.68002 6.696C4.39882 6.41471 4.24084 6.03324 4.24084 5.6355C4.24084 5.23775 4.39882 4.85629 4.68002 4.575Z" fill="black"/>
</svg>
