<svg width="24" height="24" viewBox="0 0 24 24" fill="none" xmlns="http://www.w3.org/2000/svg">
<path d="M13.92 8C13.44 5.16 10.97 3 8 3C4.69 3 2 5.69 2 9C2 11.97 4.16 14.44 7 14.92V21H9V14.91C9 13.93 8.29 13.11 7.33 12.94C6.60634 12.8176 5.93033 12.4984 5.37601 12.0173C4.82169 11.5363 4.41044 10.912 4.18731 10.2128C3.96418 9.5136 3.93777 8.76648 4.11098 8.05327C4.28419 7.34006 4.65033 6.68827 5.1693 6.1693C5.68827 5.65033 6.34006 5.28419 7.05327 5.11098C7.76648 4.93777 8.5136 4.96418 9.21279 5.18731C9.91199 5.41044 10.5363 5.82169 11.0173 6.37601C11.4984 6.93033 11.8176 7.60634 11.94 8.33C12.11 9.29 12.93 10 13.91 10H18.17L16.58 11.59L18 13L22 9L18 5L16.59 6.41L18.17 8H13.92V8Z" fill="#8B6C66"/>
</svg>
