<svg width="64" height="38" viewBox="0 0 64 38" fill="none" xmlns="http://www.w3.org/2000/svg">
<path d="M63.2227 17.1264C63.4691 17.3721 63.6646 17.6641 63.798 17.9855C63.9313 18.3069 64 18.6515 64 18.9995C64 19.3475 63.9313 19.692 63.798 20.0135C63.6646 20.3349 63.4691 20.6268 63.2227 20.8726L47.3488 36.7465C46.852 37.2433 46.1783 37.5224 45.4757 37.5224C44.7731 37.5224 44.0994 37.2433 43.6026 36.7465C43.1058 36.2497 42.8267 35.576 42.8267 34.8734C42.8267 34.1708 43.1058 33.4971 43.6026 33.0003L54.963 21.6451L3.14525 21.6451C2.44358 21.6451 1.77064 21.3664 1.27448 20.8702C0.778329 20.3741 0.499593 19.7011 0.499593 18.9995C0.499593 18.2978 0.778329 17.6249 1.27448 17.1287C1.77064 16.6326 2.44358 16.3538 3.14525 16.3538L54.963 16.3538L43.6026 4.99868C43.3566 4.7527 43.1615 4.46068 43.0283 4.13928C42.8952 3.81789 42.8267 3.47343 42.8267 3.12556C42.8267 2.77769 42.8952 2.43322 43.0283 2.11183C43.1615 1.79044 43.3566 1.49842 43.6026 1.25243C43.8486 1.00645 44.1406 0.811328 44.462 0.678203C44.7834 0.545079 45.1278 0.476562 45.4757 0.476562C45.8236 0.476562 46.168 0.545079 46.4894 0.678203C46.8108 0.811328 47.1028 1.00645 47.3488 1.25243L63.2227 17.1264Z" fill="black"/>
</svg>
