<svg width="33" height="33" viewBox="0 0 33 33" fill="none" xmlns="http://www.w3.org/2000/svg">
<path d="M16.8279 11.4118C13.89 11.4118 11.4924 13.8093 11.4924 16.7473C11.4924 19.6852 13.89 22.0828 16.8279 22.0828C19.7658 22.0828 22.1634 19.6852 22.1634 16.7473C22.1634 13.8093 19.7658 11.4118 16.8279 11.4118ZM32.8304 16.7473C32.8304 14.5378 32.8504 12.3484 32.7264 10.1429C32.6023 7.58124 32.0179 5.30774 30.1447 3.43451C28.2674 1.55728 25.9979 0.976899 23.4363 0.852817C21.2268 0.728736 19.0374 0.748749 16.8319 0.748749C14.6225 0.748749 12.433 0.728736 10.2276 0.852817C7.66589 0.976899 5.3924 1.56128 3.51917 3.43451C1.64194 5.31175 1.06155 7.58124 0.937473 10.1429C0.813392 12.3524 0.833405 14.5418 0.833405 16.7473C0.833405 18.9527 0.813392 21.1462 0.937473 23.3516C1.06155 25.9133 1.64594 28.1868 3.51917 30.06C5.3964 31.9372 7.66589 32.5176 10.2276 32.6417C12.437 32.7658 14.6265 32.7458 16.8319 32.7458C19.0414 32.7458 21.2308 32.7658 23.4363 32.6417C25.9979 32.5176 28.2714 31.9332 30.1447 30.06C32.0219 28.1828 32.6023 25.9133 32.7264 23.3516C32.8544 21.1462 32.8304 18.9567 32.8304 16.7473V16.7473ZM16.8279 24.9567C12.2849 24.9567 8.61852 21.2902 8.61852 16.7473C8.61852 12.2043 12.2849 8.53787 16.8279 8.53787C21.3709 8.53787 25.0373 12.2043 25.0373 16.7473C25.0373 21.2902 21.3709 24.9567 16.8279 24.9567ZM25.3735 10.1189C24.3128 10.1189 23.4563 9.26234 23.4563 8.20165C23.4563 7.14095 24.3128 6.28439 25.3735 6.28439C26.4342 6.28439 27.2908 7.14095 27.2908 8.20165C27.2911 8.45351 27.2417 8.70297 27.1455 8.93572C27.0493 9.16848 26.908 9.37996 26.7299 9.55806C26.5518 9.73616 26.3404 9.87737 26.1076 9.97361C25.8749 10.0698 25.6254 10.1192 25.3735 10.1189V10.1189Z" fill="#484241"/>
</svg>
