<svg width="18" height="18" viewBox="0 0 18 18" fill="none" xmlns="http://www.w3.org/2000/svg">
<path d="M15.75 4.5V8.25H14.625V5.625H10.4025L12.225 7.4475L11.43 8.25L8.25 5.0625L11.43 1.875L12.225 2.6775L10.4025 4.5H15.75ZM6.615 6.435C6.81 6.24 6.8775 5.9475 6.795 5.685C6.5175 4.815 6.375 3.915 6.375 3C6.375 2.80109 6.29598 2.61032 6.15533 2.46967C6.01468 2.32902 5.82391 2.25 5.625 2.25H3C2.80109 2.25 2.61032 2.32902 2.46967 2.46967C2.32902 2.61032 2.25 2.80109 2.25 3C2.25 6.38151 3.5933 9.62452 5.98439 12.0156C8.37548 14.4067 11.6185 15.75 15 15.75C15.1989 15.75 15.3897 15.671 15.5303 15.5303C15.671 15.3897 15.75 15.1989 15.75 15V12.375C15.75 12.1761 15.671 11.9853 15.5303 11.8447C15.3897 11.704 15.1989 11.625 15 11.625C14.0925 11.625 13.185 11.4825 12.3225 11.1975C12.1929 11.1565 12.0546 11.1516 11.9225 11.1833C11.7904 11.2151 11.6694 11.2822 11.5725 11.3775L9.9225 13.0275C7.79499 11.9425 6.06503 10.2125 4.98 8.085L6.615 6.435Z" fill="black"/>
</svg>
