<svg width="103" height="93" viewBox="0 0 103 93" fill="none" xmlns="http://www.w3.org/2000/svg">
<path fill-rule="evenodd" clip-rule="evenodd" d="M0 51.5C0 23.0574 23.0573 0 51.5 0C79.9427 0 103 23.0574 103 51.5C103 68.049 95.1943 82.7749 83.0638 92.1968C76.549 81.6022 64.8495 74.5375 51.5 74.5375C38.1505 74.5375 26.451 81.6022 19.9362 92.1968C7.80569 82.7749 0 68.049 0 51.5ZM71.634 51.5C71.634 62.6198 62.6197 71.6342 51.4999 71.6342C40.3801 71.6342 31.3657 62.6198 31.3657 51.5C31.3657 40.3802 40.3801 31.3658 51.4999 31.3658C62.6197 31.3658 71.634 40.3802 71.634 51.5Z" fill="#EAD6D6"/>
</svg>
