<svg width="22" height="22" viewBox="0 0 22 22" fill="none" xmlns="http://www.w3.org/2000/svg">
<path d="M11.3267 0.400238C14.1114 0.400238 16.7821 1.50648 18.7513 3.47562C20.7204 5.44475 21.8267 8.11547 21.8267 10.9002C21.8267 13.685 20.7204 16.3557 18.7513 18.3249C16.7821 20.294 14.1114 21.4002 11.3267 21.4002C8.54189 21.4002 5.87117 20.294 3.90204 18.3249C1.93291 16.3557 0.82666 13.685 0.82666 10.9002C0.82666 8.11547 1.93291 5.44475 3.90204 3.47562C5.87117 1.50648 8.54189 0.400238 11.3267 0.400238ZM10.0187 12.9717L7.68616 10.6377C7.60254 10.5541 7.50327 10.4878 7.39402 10.4425C7.28476 10.3973 7.16767 10.374 7.04941 10.374C6.93115 10.374 6.81406 10.3973 6.7048 10.4425C6.59555 10.4878 6.49628 10.5541 6.41266 10.6377C6.24378 10.8066 6.14891 11.0357 6.14891 11.2745C6.14891 11.5133 6.24378 11.7424 6.41266 11.9112L9.38266 14.8812C9.46604 14.9653 9.56524 15.032 9.67452 15.0775C9.78381 15.123 9.90102 15.1464 10.0194 15.1464C10.1378 15.1464 10.255 15.123 10.3643 15.0775C10.4736 15.032 10.5728 14.9653 10.6562 14.8812L16.8062 8.72974C16.8909 8.64647 16.9583 8.54724 17.0045 8.43779C17.0507 8.32833 17.0748 8.21081 17.0753 8.09201C17.0759 7.9732 17.0529 7.85547 17.0077 7.74559C16.9625 7.63571 16.8961 7.53586 16.8121 7.4518C16.7281 7.36774 16.6284 7.30114 16.5185 7.25583C16.4087 7.21053 16.291 7.18742 16.1722 7.18783C16.0534 7.18824 15.9359 7.21217 15.8263 7.25824C15.7168 7.30431 15.6175 7.3716 15.5342 7.45624L10.0187 12.9717Z" fill="#00F436"/>
</svg>
