<svg width="12" height="12" viewBox="0 0 12 12" fill="none" xmlns="http://www.w3.org/2000/svg">
<path fill-rule="evenodd" clip-rule="evenodd" d="M1.41374 0.38325C1.54497 0.252216 1.70255 0.150568 1.87603 0.085042C2.04952 0.0195158 2.23495 -0.00839245 2.42004 0.00316671C2.60513 0.0147259 2.78565 0.0654885 2.94963 0.152091C3.11362 0.238693 3.25733 0.359157 3.37124 0.5055L4.71749 2.235C4.96424 2.55225 5.05124 2.9655 4.95374 3.3555L4.54349 4.998C4.52228 5.08307 4.52342 5.17218 4.54681 5.25668C4.57021 5.34118 4.61505 5.4182 4.67699 5.48025L6.51974 7.323C6.58186 7.38506 6.65901 7.42998 6.74365 7.45338C6.82829 7.47677 6.91755 7.47785 7.00274 7.4565L8.64449 7.04625C8.83695 6.99813 9.03783 6.99439 9.23195 7.03532C9.42607 7.07625 9.60834 7.16077 9.76499 7.2825L11.4945 8.628C12.1162 9.11175 12.1732 10.0305 11.6167 10.5862L10.8412 11.3617C10.2862 11.9167 9.45674 12.1605 8.68349 11.8882C6.70437 11.1919 4.90744 10.0589 3.42599 8.57325C1.94045 7.09201 0.807443 5.29534 0.110987 3.3165C-0.160513 2.544 0.083237 1.71375 0.638237 1.15875L1.41374 0.38325Z" fill="black"/>
</svg>
