<svg width="33" height="33" viewBox="0 0 33 33" fill="none" xmlns="http://www.w3.org/2000/svg">
<g clip-path="url(#clip0_272_1150)">
<path d="M17.5402 0.279441C19.2852 0.252441 21.0202 0.268441 22.7532 0.252441C22.8582 2.29344 23.5922 4.37244 25.0862 5.81544C26.5772 7.29444 28.6862 7.97144 30.7382 8.20044V13.5694C28.8152 13.5064 26.8832 13.1064 25.1382 12.2784C24.3782 11.9344 23.6702 11.4914 22.9772 11.0384C22.9682 14.9344 22.9932 18.8254 22.9522 22.7054C22.8482 24.5694 22.2332 26.4244 21.1492 27.9604C19.4052 30.5174 16.3782 32.1844 13.2692 32.2364C11.3622 32.3454 9.45724 31.8254 7.83224 30.8674C5.13924 29.2794 3.24424 26.3724 2.96824 23.2524C2.93347 22.5917 2.92814 21.9297 2.95224 21.2684C3.19224 18.7314 4.44724 16.3044 6.39524 14.6534C8.60324 12.7304 11.6962 11.8144 14.5922 12.3564C14.6192 14.3314 14.5402 16.3044 14.5402 18.2794C13.2172 17.8514 11.6712 17.9714 10.5152 18.7744C9.66948 19.3316 9.03034 20.1513 8.69624 21.1074C8.42024 21.7834 8.49924 22.5344 8.51524 23.2524C8.83224 25.4404 10.9362 27.2794 13.1822 27.0804C14.6712 27.0644 16.0982 26.2004 16.8742 24.9354C17.1252 24.4924 17.4062 24.0394 17.4212 23.5184C17.5522 21.1334 17.5002 18.7584 17.5162 16.3734C17.5272 10.9984 17.5002 5.63844 17.5412 0.280441L17.5402 0.279441Z" fill="#484241"/>
</g>
<defs>
<clipPath id="clip0_272_1150">
<rect width="32" height="32" fill="white" transform="translate(0.832214 0.252441)"/>
</clipPath>
</defs>
</svg>
