<svg width="33" height="33" viewBox="0 0 33 33" fill="none" xmlns="http://www.w3.org/2000/svg">
<g clip-path="url(#clip0_272_1160)">
<path d="M21.7432 0.747559H11.9202C2.95624 0.747559 0.831238 2.87256 0.831238 11.8366V21.6596C0.831238 30.6236 2.95624 32.7486 11.9202 32.7486H21.7432C30.7072 32.7486 32.8322 30.6236 32.8322 21.6596V11.8366C32.8322 2.87256 30.6862 0.747559 21.7432 0.747559ZM26.6652 23.5756H24.3422C23.4622 23.5756 23.1912 22.8776 21.6082 21.2736C20.2332 19.9406 19.6242 19.7636 19.2852 19.7636C18.8062 19.7636 18.6702 19.8986 18.6702 20.5556V22.6546C18.6702 23.2176 18.4932 23.5556 17.0032 23.5556C14.5392 23.5556 11.8052 22.0656 9.88824 19.2896C6.99724 15.2216 6.20624 12.1746 6.20624 11.5446C6.20624 11.2056 6.34124 10.8886 6.99224 10.8886H9.32024C9.90924 10.8886 10.1332 11.1596 10.3622 11.7896C11.5132 15.1126 13.4302 18.0236 14.2212 18.0236C14.5132 18.0236 14.6482 17.8886 14.6482 17.1436V13.7116C14.5592 12.1286 13.7262 11.9926 13.7262 11.4306C13.7262 11.1596 13.9502 10.8886 14.3092 10.8886H17.9702C18.4652 10.8886 18.6472 11.1596 18.6472 11.7426V16.3726C18.6472 16.8726 18.8712 17.0496 19.0062 17.0496C19.2982 17.0496 19.5482 16.8726 20.0892 16.3306C21.7612 14.4556 22.9592 11.5646 22.9592 11.5646C23.1152 11.2256 23.3862 10.9086 23.9752 10.9086H26.3032C27.0012 10.9086 27.1572 11.2676 27.0012 11.7676C26.7092 13.1216 23.8602 17.1426 23.8602 17.1426C23.6152 17.5486 23.5212 17.7256 23.8602 18.1786C24.1102 18.5176 24.9232 19.2206 25.4642 19.8506C26.4592 20.9806 27.2242 21.9286 27.4282 22.5846C27.6572 23.2356 27.3192 23.5746 26.6622 23.5746L26.6652 23.5756Z" fill="#484241"/>
</g>
<defs>
<clipPath id="clip0_272_1160">
<rect width="32" height="32" fill="white" transform="translate(0.832214 0.747559)"/>
</clipPath>
</defs>
</svg>
