<svg width="16" height="16" viewBox="0 0 16 16" fill="none" xmlns="http://www.w3.org/2000/svg">
<path fill-rule="evenodd" clip-rule="evenodd" d="M8.7494 9.19101C8.59969 9.11651 7.86567 8.75751 7.72902 8.70751C7.59236 8.65801 7.49289 8.63351 7.39291 8.78251C7.29343 8.93051 7.00756 9.26551 6.92064 9.36451C6.83323 9.46401 6.74631 9.47601 6.5971 9.40201C6.44788 9.32701 5.96658 9.17051 5.39634 8.66451C4.95272 8.27051 4.65278 7.78401 4.56587 7.63501C4.47895 7.48651 4.55632 7.40601 4.63118 7.33201C4.6985 7.26551 4.78039 7.15851 4.85525 7.07201C4.93011 6.98501 4.95473 6.92301 5.00447 6.82351C5.05471 6.72451 5.02959 6.63801 4.99191 6.56351C4.95473 6.48901 4.6563 5.75751 4.5317 5.46001C4.41062 5.17052 4.28753 5.21002 4.1961 5.20502C4.10868 5.20101 4.0092 5.20002 3.90972 5.20002C3.81025 5.20002 3.64847 5.23702 3.51182 5.38601C3.37466 5.53451 2.98932 5.89401 2.98932 6.62551C2.98932 7.35651 3.52388 8.06301 3.59874 8.16251C3.67359 8.26151 4.65128 9.76251 6.14895 10.406C6.50566 10.559 6.78349 10.6505 7.00003 10.7185C7.35774 10.832 7.6833 10.816 7.94053 10.7775C8.2269 10.735 8.82376 10.418 8.94836 10.071C9.07245 9.72401 9.07245 9.42651 9.03527 9.36451C8.99809 9.30251 8.89862 9.26551 8.7489 9.19101H8.7494ZM6.02536 12.8925H6.02335C5.1338 12.8927 4.26059 12.6547 3.49524 12.2035L3.31437 12.0965L1.43437 12.5875L1.93627 10.7635L1.81821 10.5765C1.3209 9.78868 1.05771 8.8769 1.05907 7.94651C1.06008 5.22151 3.28775 3.00452 6.02737 3.00452C7.35372 3.00452 8.60069 3.51952 9.53818 4.45352C10.0006 4.91181 10.3671 5.4568 10.6165 6.05696C10.8659 6.65713 10.9932 7.30055 10.9911 7.95001C10.9901 10.675 8.76247 12.8925 6.02536 12.8925ZM10.2516 3.74402C9.69804 3.18948 9.03941 2.74979 8.31386 2.45042C7.58832 2.15105 6.81028 1.99796 6.02485 2.00002C2.73208 2.00002 0.0512454 4.66752 0.0502406 7.94601C0.0487148 8.98938 0.323738 10.0147 0.847559 10.9185L0 14L3.16717 13.173C4.0433 13.6481 5.02511 13.897 6.02285 13.897H6.02536C9.31813 13.897 11.999 11.2295 12 7.95051C12.0024 7.16915 11.8491 6.39506 11.549 5.67303C11.2489 4.951 10.8079 4.29535 10.2516 3.74402Z" fill="black"/>
</svg>
